<svg width="134" height="29" viewBox="0 0 134 29" fill="none" xmlns="http://www.w3.org/2000/svg">
<path fill-rule="evenodd" clip-rule="evenodd" d="M37.604 6.30915C38.1009 6.30915 38.5874 6.36104 39.0635 6.44405C39.5396 6.52707 39.9847 6.65159 40.3987 6.828C40.8231 6.99403 41.1957 7.20156 41.5477 7.45061C41.8996 7.69965 42.1894 7.97983 42.4482 8.31189C42.7069 8.63358 42.9036 8.99677 43.0382 9.40147C43.1727 9.79579 43.2452 10.2316 43.2452 10.709C43.2452 11.0203 43.1934 11.3212 43.1003 11.6117C42.9968 11.8919 42.8518 12.1513 42.6655 12.3693C42.4792 12.5872 42.2412 12.7636 41.972 12.8985C41.6926 13.023 41.3717 13.0853 41.0198 13.0853C40.7403 13.0853 40.4815 13.0438 40.2538 12.9607C40.0365 12.8777 39.8398 12.774 39.6845 12.6183C39.5189 12.473 39.4051 12.2862 39.3119 12.0683C39.2188 11.8608 39.1774 11.6117 39.1774 11.3419C39.1774 11.1655 39.1877 11.0099 39.2188 10.8854C39.2602 10.7505 39.2912 10.6363 39.3223 10.5118C39.3637 10.3873 39.4051 10.2627 39.4361 10.1278C39.4672 9.98257 39.4775 9.82692 39.4775 9.62976C39.4775 9.11091 39.3223 8.70621 38.9807 8.43641C38.6495 8.16661 38.194 8.03172 37.5937 8.03172C37.0451 8.03172 36.5483 8.17699 36.0928 8.46754C35.6271 8.74772 35.2337 9.19393 34.9025 9.79579C34.5609 10.3873 34.3022 11.1552 34.1159 12.0787C33.9296 13.0126 33.8364 14.123 33.8364 15.4097C33.8364 15.9804 33.8675 16.5511 33.9296 17.1322C33.9813 17.703 34.0745 18.253 34.209 18.7926C34.3332 19.3114 34.5092 19.8095 34.7162 20.2764C34.9336 20.733 35.1923 21.1377 35.5132 21.4802C35.8237 21.8226 36.186 22.0924 36.6104 22.2792C37.0244 22.4764 37.5109 22.5801 38.0595 22.5801C38.4942 22.5801 38.9186 22.5075 39.3326 22.3726C39.7466 22.2377 40.1193 22.0301 40.4608 21.7811C40.8024 21.5217 41.0922 21.2104 41.351 20.8576C41.5994 20.5047 41.7857 20.1104 41.8996 19.6746C41.9617 19.4152 42.0859 19.218 42.2619 19.0831C42.4275 18.9378 42.6138 18.8652 42.8104 18.8652C42.9243 18.8652 43.0175 18.8859 43.121 18.9275C43.2245 18.969 43.3176 19.0208 43.3901 19.0935C43.4729 19.1765 43.535 19.2595 43.5867 19.3633C43.6385 19.4671 43.6592 19.5916 43.6592 19.7265C43.6592 19.8199 43.6592 19.9444 43.6488 20.0897C43.6385 20.2246 43.6281 20.3595 43.5971 20.484C43.5039 20.9509 43.3383 21.3764 43.121 21.7811C42.9036 22.1754 42.6448 22.5386 42.3447 22.8603C42.0445 23.1716 41.7029 23.4622 41.3303 23.7112C40.9577 23.9602 40.5643 24.1678 40.1607 24.3338C39.7466 24.4998 39.3326 24.6244 38.9082 24.7074C38.4839 24.8008 38.0595 24.8423 37.6558 24.8423C36.7863 24.8423 35.9893 24.7281 35.2751 24.4895C34.5609 24.2508 33.9296 23.9187 33.3603 23.4933C32.8013 23.0782 32.3148 22.5697 31.9008 21.9886C31.4868 21.3972 31.1452 20.7538 30.8761 20.0585C30.607 19.3529 30.4103 18.6161 30.2758 17.8275C30.1412 17.0389 30.0791 16.2295 30.0791 15.4097C30.0791 14.5795 30.1412 13.7909 30.2758 13.023C30.4 12.2551 30.607 11.5391 30.8657 10.8542C31.1349 10.1797 31.4764 9.5675 31.8801 9.00714C32.2941 8.45717 32.7806 7.97983 33.3292 7.57513C33.8881 7.17043 34.5299 6.85913 35.2337 6.64121C35.9479 6.4233 36.7346 6.30915 37.604 6.30915ZM22.637 9.83729C22.5438 9.88918 22.4713 9.95144 22.3989 10.0345C22.1194 10.3873 21.7882 10.709 21.4052 11.0203C21.0119 11.3316 20.5668 11.6221 20.0803 11.9023C19.5732 12.1825 19.0349 12.4419 18.4553 12.6702C17.8549 12.9089 17.2235 13.1268 16.5715 13.3136C15.8883 13.5003 15.1741 13.6664 14.4496 13.8013C13.7147 13.9258 12.9694 14.0296 12.2345 14.0918C11.4893 14.1541 10.7544 14.1852 10.0298 14.1748C9.30527 14.1645 8.60142 14.123 7.92863 14.0503C7.4732 13.9984 7.03847 13.9258 6.62444 13.8428C6.18971 13.7494 5.78603 13.6352 5.40306 13.5107C4.99938 13.3862 4.62676 13.2409 4.28518 13.0853C3.93326 12.9192 3.61239 12.7428 3.31222 12.556C3.05345 12.39 2.80504 12.2032 2.59802 12.0268C2.38066 11.84 2.2047 11.6533 2.04944 11.4561C1.90453 11.2693 1.79067 11.0825 1.71821 10.8957C1.63541 10.709 1.59401 10.5222 1.58366 10.3354V10.2524L1.59401 10.1694L1.60436 10.0863L1.62506 9.99295C1.65611 9.83729 1.71821 9.69202 1.80102 9.54674C1.88383 9.40147 1.99768 9.25619 2.14259 9.12129C2.2668 8.98639 2.42206 8.86187 2.59802 8.73734C2.77398 8.61282 2.981 8.49868 3.18801 8.38453L3.25012 8.34302L3.32257 8.54018C3.36397 8.64395 3.40538 8.74772 3.45713 8.85149C3.50888 8.96564 3.57099 9.0694 3.63309 9.17317C3.6952 9.27694 3.7573 9.38071 3.84011 9.48448C3.91256 9.58825 3.98501 9.70239 4.07817 9.80616C4.30589 10.0863 4.58535 10.3458 4.88552 10.5844C5.19604 10.8335 5.54797 11.0514 5.92059 11.2382C6.31392 11.4353 6.7383 11.6014 7.17303 11.7466C7.63881 11.8919 8.11494 12.0164 8.61177 12.1098C9.10861 12.2032 9.62614 12.2655 10.154 12.307C10.6923 12.3485 11.2408 12.3589 11.7894 12.3381C12.338 12.3277 12.8866 12.2862 13.4248 12.224C13.9631 12.1513 14.491 12.058 14.9878 11.9438C15.3915 11.8504 15.7848 11.7363 16.1574 11.6117C16.53 11.4768 16.882 11.3316 17.2132 11.1655C17.5444 10.9995 17.8446 10.8231 18.1137 10.6363C18.3725 10.4495 18.6002 10.2627 18.7968 10.0552C18.9004 9.94106 19.0039 9.82692 19.0867 9.71277C19.1695 9.59863 19.2419 9.4741 19.304 9.34958C19.3661 9.23543 19.4179 9.11091 19.4489 8.98639C19.4903 8.86187 19.511 8.73734 19.5214 8.61282C19.5421 8.46754 19.5421 8.32227 19.5214 8.17699C19.5007 8.04209 19.4696 7.90719 19.4179 7.77229C19.3661 7.63739 19.304 7.50249 19.2212 7.37797C19.1488 7.25345 19.0453 7.12893 18.9314 7.0044C18.7761 6.83837 18.5795 6.67234 18.3518 6.51669C18.1241 6.37141 17.8653 6.22614 17.5651 6.09124C17.2753 5.95634 16.9544 5.83181 16.5922 5.71767C16.2402 5.60352 15.8469 5.51013 15.4225 5.41674C15.1534 5.35448 14.8532 5.30259 14.5324 5.26108C14.2115 5.21958 13.8596 5.18845 13.4766 5.15732C13.104 5.13656 12.7106 5.12618 12.307 5.11581C11.9033 5.11581 11.4789 5.11581 11.0545 5.12618C10.5577 5.14694 10.0505 5.17807 9.54333 5.21958C9.0465 5.26108 8.53932 5.31297 8.04248 5.38561C7.62846 5.43749 7.21443 5.51013 6.81075 5.58277C6.41743 5.65541 6.0241 5.73842 5.65148 5.83181L5.40306 5.8837L5.74463 5.59315C5.87919 5.48938 6.01375 5.38561 6.15866 5.28184C6.31392 5.17807 6.46918 5.08468 6.63479 4.99129C6.8004 4.89789 6.97636 4.81488 7.15233 4.73186C7.33864 4.64885 7.52495 4.56583 7.72161 4.49319C7.81477 4.45169 7.90793 4.3998 7.98038 4.32716C8.05283 4.25453 8.11494 4.17151 8.15634 4.07812C8.19774 3.98473 8.2288 3.89133 8.2288 3.78757C8.2288 3.6838 8.21845 3.58003 8.18739 3.48664L8.17704 3.46588C8.14599 3.37249 8.08389 3.2791 8.01143 3.20646C7.93898 3.13382 7.85617 3.07156 7.76302 3.01968C7.66986 2.97817 7.56635 2.95741 7.4732 2.95741C7.36969 2.94704 7.26618 2.96779 7.17303 2.99892L7.15233 3.0093C6.92461 3.09231 6.69689 3.18571 6.47953 3.28947C6.26217 3.39324 6.0448 3.49701 5.83779 3.61116C5.64112 3.7253 5.44446 3.84983 5.25815 3.97435C5.07184 4.09887 4.89587 4.23377 4.73026 4.36867C4.575 4.50357 4.41974 4.63847 4.27483 4.78375C4.12992 4.92902 4.00572 5.08468 3.88151 5.22995C3.76765 5.38561 3.66414 5.54126 3.57099 5.69691C3.47783 5.85257 3.40538 6.0186 3.33292 6.18463L3.26047 6.41292L3.19836 6.62046L3.16731 6.63083C2.74293 6.81762 2.33926 7.02516 1.97698 7.25345C1.63541 7.47136 1.32489 7.71003 1.06612 7.95908C0.807354 8.2185 0.589989 8.4883 0.414028 8.76847C0.248416 9.04865 0.134559 9.34958 0.0621041 9.66089L0.0310521 9.83729L0.0103507 10.0137L0 10.2005V10.3873C0.0103507 10.6571 0.0621041 10.9372 0.14491 11.207C0.227715 11.4768 0.351923 11.7466 0.507184 12.0061C0.662444 12.2655 0.859107 12.5249 1.07647 12.7636C1.30419 13.0126 1.56295 13.2409 1.84242 13.4692L1.86312 13.4796L1.90453 13.5937C2.01838 13.8739 2.13224 14.1541 2.23575 14.4446C2.34961 14.7248 2.44276 15.005 2.54627 15.2955C2.63943 15.5757 2.72223 15.8559 2.80504 16.1361C2.88784 16.4059 2.9603 16.6757 3.03275 16.9558C3.09486 17.2049 3.15696 17.4747 3.20871 17.7341C3.26047 17.9832 3.30187 18.2426 3.34327 18.4916C3.37432 18.7303 3.40538 18.969 3.43643 19.2076C3.45713 19.4567 3.47783 19.6953 3.48818 19.9236V19.934C3.47783 19.9859 3.48818 20.0378 3.49853 20.0897C3.50888 20.1416 3.51923 20.1934 3.53994 20.2453C3.56064 20.2972 3.58134 20.3491 3.61239 20.3906C3.64344 20.4425 3.68484 20.484 3.7159 20.5255L3.7987 20.5981L3.86081 20.6396L3.92291 20.6811L3.99537 20.7123C4.5129 20.9717 5.11324 21.2207 5.77568 21.4283C6.42778 21.6358 7.14197 21.8226 7.89757 21.9679C8.62212 22.1028 9.38807 22.2066 10.1747 22.2688C10.9303 22.3311 11.7066 22.3518 12.4933 22.3311C13.2178 22.3207 13.9631 22.2584 14.7083 22.1547C15.4122 22.0613 16.1057 21.9264 16.7992 21.75C17.4513 21.5839 18.1034 21.366 18.7244 21.117C19.3247 20.8783 19.9044 20.5981 20.4633 20.2661C20.5254 20.2349 20.5875 20.1831 20.6289 20.1312C20.6807 20.0793 20.7221 20.017 20.7531 19.9548C20.7842 19.8821 20.8049 19.8199 20.8152 19.7472C20.8256 19.6746 20.8256 19.602 20.8152 19.5293V19.5189C20.7945 19.384 20.7945 19.2491 20.7945 19.1039C20.7842 18.9586 20.7945 18.8133 20.7945 18.668C20.8049 18.5228 20.8152 18.3671 20.8359 18.2218C20.8463 18.0662 20.867 17.9105 20.898 17.7549C20.9291 17.5785 20.9601 17.4124 20.9912 17.2464C21.0326 17.0804 21.074 16.904 21.1154 16.7379C21.1672 16.5615 21.2189 16.3851 21.2707 16.2191C21.3328 16.0427 21.3949 15.8663 21.457 15.7002C21.4984 15.5965 21.5087 15.5031 21.5087 15.3993C21.4984 15.3059 21.4777 15.2021 21.4363 15.1088C21.3949 15.0154 21.3328 14.922 21.2603 14.8493C21.1879 14.7767 21.1051 14.7248 21.0015 14.6729L20.9705 14.6625C20.8773 14.6314 20.7842 14.6107 20.691 14.6107C20.5979 14.6107 20.5047 14.6314 20.4219 14.6625C20.3288 14.7041 20.2563 14.7456 20.1838 14.8182C20.1217 14.8805 20.07 14.9531 20.0286 15.0465L20.0182 15.0776C19.9458 15.2748 19.8733 15.4719 19.8009 15.6691C19.7388 15.8663 19.6767 16.0634 19.6249 16.2606C19.5732 16.4578 19.5214 16.6549 19.48 16.8521C19.4386 17.0389 19.4075 17.2256 19.3765 17.4124C19.3454 17.5577 19.3247 17.7134 19.304 17.8586C19.2937 18.0039 19.2833 18.1596 19.273 18.3048C19.2626 18.4397 19.2523 18.5746 19.2523 18.6992C19.2419 18.8341 19.2419 18.9586 19.2523 19.0935V19.135L19.2212 19.1557C19.066 19.2284 18.9211 19.301 18.7658 19.3737C18.6105 19.4463 18.4553 19.5189 18.2897 19.5916C18.1448 19.6538 17.9895 19.7161 17.8446 19.768C17.6893 19.8302 17.5341 19.8821 17.3788 19.9444L17.296 19.9651L17.3063 19.602L17.3271 19.1661C17.3478 19.0105 17.3581 18.8548 17.3788 18.6992C17.3892 18.5435 17.4099 18.3879 17.4409 18.2322C17.4616 18.0765 17.4927 17.9209 17.5134 17.7652C17.5444 17.5992 17.5858 17.4332 17.6169 17.2775C17.6376 17.1738 17.6376 17.07 17.6272 16.9662C17.6065 16.8625 17.5651 16.7587 17.5134 16.6757C17.4616 16.5823 17.3892 16.4993 17.3063 16.437C17.2339 16.3747 17.1407 16.3229 17.0372 16.2917L16.9855 16.2813C16.8923 16.2606 16.7992 16.2502 16.7164 16.271C16.6232 16.2813 16.5404 16.3125 16.4576 16.3644C16.3851 16.4059 16.3127 16.4681 16.2609 16.5408C16.2092 16.6134 16.1574 16.6964 16.1367 16.7794L16.116 16.8417C16.085 17.0285 16.0436 17.2049 16.0125 17.3813C15.9815 17.5577 15.9504 17.7341 15.9194 17.9105C15.8987 18.0869 15.8676 18.2633 15.8469 18.4397C15.8366 18.6058 15.8159 18.7822 15.8055 18.9482L15.7744 19.3218L15.7641 19.6953V20.017L15.7744 20.3906L15.7227 20.401C15.4846 20.4529 15.2569 20.4944 15.0188 20.5359C14.7808 20.5774 14.5324 20.6085 14.2943 20.6396L14.2218 20.65L14.1804 18.9482C14.1701 18.6369 14.0976 18.3463 13.9838 18.0765C13.8596 17.7964 13.6836 17.5473 13.4766 17.3294C13.2799 17.1219 13.0315 16.9558 12.7624 16.8417C12.5036 16.7276 12.2242 16.6653 11.9447 16.6653L11.8515 16.6757C11.5824 16.686 11.3237 16.7483 11.0959 16.8625C10.8579 16.9766 10.6405 17.1426 10.4645 17.3398C10.2886 17.5473 10.1437 17.7756 10.0505 18.0454C9.95736 18.2945 9.91596 18.5746 9.91596 18.8652L9.95736 20.7123L9.88491 20.7019C9.62614 20.6811 9.36737 20.65 9.10861 20.6085C8.84984 20.5774 8.59107 20.5359 8.34265 20.4944L8.2909 20.484V20.1L8.2702 19.7576L8.23915 19.3633C8.2288 19.2284 8.2081 19.0935 8.19774 18.9482C8.17704 18.8029 8.15634 18.6577 8.12529 18.5124C8.10459 18.3567 8.07354 18.2114 8.04248 18.0662C8.01143 17.9105 7.98038 17.7652 7.94933 17.62L7.82512 17.153C7.80442 17.0596 7.75267 16.9662 7.70091 16.8936C7.63881 16.8106 7.56635 16.7483 7.48355 16.6964C7.40074 16.6342 7.30759 16.603 7.21443 16.5823C7.12127 16.5719 7.02812 16.5719 6.92461 16.5927H6.89356C6.8004 16.6238 6.72795 16.6653 6.65549 16.7172C6.59339 16.7691 6.53128 16.8313 6.48988 16.904C6.43813 16.987 6.40708 17.07 6.39672 17.153C6.38637 17.236 6.38637 17.3294 6.40708 17.4228L6.52093 17.8794L6.61409 18.2841C6.63479 18.419 6.66584 18.5435 6.68654 18.6784C6.70725 18.8029 6.72795 18.9378 6.74865 19.0624L6.7797 19.3633L6.8004 19.6435L6.8211 19.8614L6.83145 20.1623L6.30357 20.0066C6.15866 19.9651 6.01375 19.9133 5.86884 19.8614C5.72393 19.8095 5.57902 19.7576 5.44446 19.7057C5.29955 19.6435 5.15464 19.5916 5.03043 19.5397L4.99938 19.5189L4.98903 19.4878C4.97868 19.2595 4.95798 19.0416 4.92693 18.8133C4.89587 18.585 4.86482 18.3671 4.82342 18.1388C4.79237 17.9001 4.74061 17.6511 4.68886 17.4124C4.63711 17.1634 4.58535 16.9143 4.52325 16.6653L4.38869 16.1464L4.24378 15.6276L4.10922 15.2125L3.93326 14.6625L4.05747 14.7144C4.31624 14.8182 4.58535 14.922 4.85447 15.0154C5.12359 15.0984 5.41341 15.1814 5.70323 15.254C6.0241 15.337 6.36567 15.4201 6.70725 15.4823C7.04882 15.5446 7.39039 15.5965 7.75267 15.638C8.47721 15.721 9.23281 15.7625 9.99876 15.7729C10.7751 15.7729 11.5617 15.7417 12.3587 15.6795C13.1557 15.6068 13.9527 15.5031 14.729 15.3682C15.5053 15.2229 16.2713 15.0465 17.0062 14.839C17.7307 14.6314 18.4346 14.3928 19.1074 14.123C19.7595 13.8532 20.3702 13.5626 20.9498 13.2305C21.4984 12.9192 22.0056 12.5664 22.4713 12.1928C22.9061 11.84 23.2994 11.4561 23.6306 11.041C23.7031 10.958 23.7445 10.8646 23.7755 10.7712C23.8066 10.6674 23.8169 10.5637 23.8066 10.4599C23.7962 10.3561 23.7652 10.2524 23.7134 10.159C23.6617 10.076 23.5996 9.99295 23.5168 9.92031C23.434 9.85805 23.3408 9.80616 23.2476 9.77503C23.1441 9.75428 23.0406 9.7439 22.9371 9.75428C22.8336 9.76466 22.7301 9.79579 22.637 9.83729ZM12.545 3.5489C12.7624 3.45551 12.9694 3.32061 13.135 3.15458C13.311 2.97817 13.4455 2.78101 13.5387 2.55272C13.6319 2.3348 13.6733 2.09613 13.6733 1.84709C13.6733 1.59804 13.6319 1.35937 13.5387 1.14146C13.4455 0.913167 13.311 0.716006 13.135 0.539598C12.9694 0.373568 12.7624 0.238669 12.545 0.145277C12.3277 0.0518845 12.0896 0 11.8412 0C11.5928 0 11.3547 0.0518845 11.1373 0.145277C10.9096 0.238669 10.7026 0.373568 10.537 0.539598C10.3714 0.716006 10.2265 0.913167 10.1437 1.14146C10.0505 1.35937 9.99876 1.59804 9.99876 1.84709C9.99876 2.35555 10.2058 2.82252 10.537 3.15458C10.7026 3.32061 10.9096 3.45551 11.1373 3.5489C11.3547 3.64229 11.5928 3.69417 11.8412 3.69417C12.0896 3.69417 12.3277 3.64229 12.545 3.5489ZM4.79237 7.72041H4.80272C5.23745 7.57513 5.70323 7.45061 6.17936 7.33646C6.67619 7.22232 7.19373 7.11855 7.72161 7.03553C8.28055 6.95252 8.83949 6.87988 9.39842 6.828C9.96771 6.77611 10.5474 6.7346 11.1063 6.72423C11.4996 6.70347 11.8826 6.70347 12.2552 6.70347C12.6278 6.71385 12.9901 6.72423 13.3317 6.74498C13.6629 6.76573 13.9838 6.79686 14.2839 6.83837C14.5841 6.8695 14.8532 6.92139 15.0913 6.97327C15.4329 7.04591 15.7434 7.12893 16.0229 7.21194C16.3127 7.29496 16.5715 7.38835 16.7888 7.48174C17.0165 7.57513 17.2132 7.6789 17.3685 7.77229C17.5444 7.87606 17.679 7.99021 17.7825 8.09398C17.8032 8.12511 17.8342 8.16661 17.8549 8.19775C17.8756 8.22888 17.8963 8.26001 17.9067 8.29114C17.9274 8.31189 17.9377 8.34302 17.9377 8.37415C17.9481 8.39491 17.9481 8.42604 17.9481 8.45717C17.9377 8.4883 17.9274 8.52981 17.917 8.56094C17.9067 8.60244 17.886 8.64395 17.8653 8.68546C17.8342 8.72697 17.8032 8.76847 17.7721 8.82036C17.7307 8.86187 17.6893 8.91375 17.6479 8.95526C17.503 9.10054 17.3271 9.24581 17.1304 9.39109C16.9234 9.52599 16.6853 9.66089 16.4265 9.78541C16.1781 9.89956 15.8883 10.0137 15.5881 10.1175C15.288 10.2212 14.9671 10.3146 14.6359 10.3873C14.1804 10.5014 13.7147 10.5844 13.2282 10.6363C12.7417 10.6986 12.2449 10.7401 11.748 10.7505C11.2615 10.7608 10.7647 10.7505 10.2782 10.7193C9.81245 10.6882 9.34667 10.6259 8.90159 10.5429C8.49791 10.4703 8.10459 10.3769 7.73196 10.2524C7.36969 10.1486 7.03847 10.0137 6.72795 9.85805C6.42778 9.72315 6.15866 9.55712 5.91024 9.37033C5.68253 9.19393 5.47551 9.00714 5.29955 8.78923C5.2478 8.72697 5.18569 8.65433 5.14429 8.58169C5.09254 8.51943 5.05114 8.44679 5.00973 8.37415C4.96833 8.31189 4.92693 8.23925 4.89587 8.17699C4.86482 8.10435 4.83377 8.04209 4.81307 7.96945L4.73026 7.74116L4.79237 7.72041ZM18.5588 24.0329C18.3828 23.9291 18.1655 23.898 17.9481 23.9602C16.882 24.2508 15.8366 24.4583 14.8118 24.5829C13.7768 24.697 12.7727 24.7385 11.7687 24.7178C10.7647 24.6866 9.77105 24.5932 8.78773 24.4376C7.80442 24.2819 6.83145 24.0744 5.85849 23.8357C5.65148 23.7735 5.43411 23.815 5.25815 23.9187C5.08219 24.0225 4.94763 24.1989 4.88552 24.4065C4.83377 24.6244 4.87517 24.8423 4.97868 25.0187C5.08219 25.1951 5.2478 25.33 5.46516 25.3819C6.48988 25.6517 7.5146 25.8696 8.56002 26.0252C9.60544 26.1913 10.6612 26.2847 11.7273 26.3158C12.8038 26.3469 13.8906 26.3054 14.9981 26.1705C16.1057 26.046 17.2339 25.8281 18.3725 25.5064C18.5898 25.4441 18.7554 25.3092 18.859 25.1225C18.9625 24.9461 18.9935 24.7281 18.9314 24.5206C18.8797 24.3027 18.7347 24.1367 18.5588 24.0329ZM49.8179 10.1694C50.6563 10.1694 51.3912 10.2939 52.0226 10.5325C52.6539 10.7816 53.1818 11.1137 53.5959 11.5391C54.0099 11.9646 54.3204 12.4626 54.5274 13.0334C54.7241 13.6145 54.8276 14.2267 54.8276 14.8701V20.2142C54.8276 20.4529 54.8483 20.6396 54.8793 20.7953C54.9104 20.9406 54.9414 21.0755 54.9932 21.1896C55.0243 21.3141 55.0657 21.4283 55.1071 21.5321C55.1381 21.6358 55.1588 21.7707 55.1588 21.9264C55.1588 22.0924 55.1278 22.2377 55.0657 22.3726C55.0139 22.5075 54.9207 22.6216 54.8069 22.7254C54.693 22.8188 54.5585 22.9018 54.4136 22.9537C54.2583 23.0159 54.0823 23.0367 53.896 23.0367C53.6994 23.0367 53.5234 23.0159 53.3785 22.9744C53.2439 22.9329 53.1094 22.8914 52.9955 22.8395C52.8713 22.7877 52.7678 22.7461 52.6643 22.7046C52.5608 22.6528 52.4573 22.6424 52.3434 22.6424C52.2192 22.6424 52.0743 22.6735 51.8983 22.7461C51.7327 22.8188 51.5154 22.9018 51.267 22.9952C51.0185 23.0782 50.7287 23.1612 50.3975 23.2339C50.0559 23.3065 49.6626 23.348 49.2072 23.348C48.4723 23.348 47.8202 23.265 47.2302 23.1093C46.6505 22.9641 46.1641 22.7358 45.7604 22.4452C45.3567 22.1547 45.0462 21.7915 44.8288 21.3556C44.6115 20.9302 44.508 20.4425 44.508 19.8925C44.508 19.5189 44.5597 19.1557 44.6632 18.8133C44.7667 18.4605 44.953 18.1284 45.2222 17.7964C45.4913 17.4643 45.8535 17.153 46.3193 16.8417C46.7851 16.5304 47.3751 16.2295 48.0893 15.9285C48.7 15.6795 49.2279 15.4512 49.6626 15.2437C50.0973 15.0465 50.4492 14.839 50.7287 14.6418C51.0082 14.4446 51.2152 14.2371 51.3394 14.0192C51.474 13.8013 51.5361 13.5522 51.5361 13.2824C51.5361 12.8362 51.3808 12.4938 51.0806 12.2551C50.7701 12.0061 50.3457 11.8919 49.8179 11.8919C49.5798 11.8919 49.3624 11.9127 49.1658 11.9749C48.9795 12.0372 48.8138 12.1098 48.6689 12.2032C48.524 12.2966 48.4102 12.4108 48.3274 12.5249C48.2446 12.6494 48.1824 12.7843 48.1617 12.9089C48.0996 13.3032 47.9547 13.6249 47.7063 13.8739C47.4579 14.123 47.1163 14.2475 46.6816 14.2475C46.4746 14.2475 46.2883 14.2163 46.102 14.1541C45.9053 14.0918 45.7397 13.9984 45.5948 13.8739C45.4499 13.7494 45.336 13.5937 45.2429 13.3966C45.1497 13.1994 45.1083 12.9607 45.1083 12.6909C45.1083 12.2966 45.2222 11.9438 45.4499 11.6325C45.6879 11.3316 46.0088 11.0618 46.4228 10.8439C46.8369 10.6259 47.3337 10.4599 47.9133 10.3458C48.493 10.2316 49.1244 10.1694 49.8179 10.1694ZM62.4353 16.1049C62.7562 15.9493 63.0253 15.7417 63.2427 15.4927C63.4704 15.2333 63.6567 14.9531 63.812 14.6418C63.9672 14.3409 64.1018 14.0192 64.226 13.6767C64.3399 13.3343 64.4434 12.9919 64.5572 12.6598C64.6607 12.3277 64.785 12.0061 64.8988 11.7051C65.0334 11.3938 65.1783 11.1344 65.3542 10.8957C65.5302 10.6674 65.7372 10.491 65.9856 10.3458C66.2237 10.2109 66.5239 10.1486 66.8861 10.1486C67.1139 10.1486 67.3312 10.1797 67.5175 10.2627C67.7038 10.3458 67.8695 10.4495 67.9937 10.5844C68.1282 10.7193 68.2317 10.875 68.2938 11.0618C68.3663 11.2486 68.4077 11.4457 68.4077 11.6429C68.4077 11.9646 68.3249 12.2551 68.18 12.5457C68.0247 12.8362 67.8384 13.106 67.6107 13.3758C67.383 13.6456 67.1346 13.905 66.8758 14.1541C66.6067 14.4135 66.3583 14.6625 66.1305 14.9116C65.9028 15.1606 65.7165 15.4201 65.5716 15.6691C65.4163 15.9182 65.3439 16.1776 65.3439 16.437C65.3439 16.6238 65.406 16.8728 65.5302 17.1738C65.6648 17.4747 65.82 17.7964 66.027 18.1596C66.234 18.5124 66.4618 18.8859 66.7205 19.2595C66.9689 19.6331 67.2277 19.9963 67.4865 20.3387C67.7452 20.6811 67.9833 20.9821 68.2214 21.2623C68.4491 21.5321 68.6458 21.75 68.7907 21.8952C68.8942 21.9783 68.9666 22.082 69.0184 22.2066C69.0701 22.3207 69.0908 22.4245 69.0908 22.5075C69.0908 22.6528 69.0598 22.7773 68.9873 22.881C68.9149 22.9744 68.8217 23.0678 68.6975 23.1405C68.5733 23.2027 68.418 23.2546 68.2524 23.2961C68.0868 23.3273 67.8902 23.348 67.6935 23.348C67.3726 23.348 67.0621 23.3065 66.7619 23.2131C66.4514 23.1197 66.1409 22.9641 65.8407 22.7461C65.5302 22.5179 65.23 22.2169 64.9195 21.8434C64.6193 21.4594 64.3088 20.9821 64.0087 20.401C63.9051 20.1934 63.7913 19.9859 63.6878 19.7576C63.5843 19.5397 63.4601 19.3322 63.3359 19.1246C63.222 18.9171 63.0771 18.7199 62.9322 18.5435C62.7873 18.3671 62.6217 18.2114 62.4353 18.0869C62.1973 17.9313 62.0213 17.786 61.9075 17.62C61.7936 17.4643 61.7419 17.2775 61.7419 17.0596C61.7419 16.8728 61.7936 16.6964 61.9075 16.5304C62.011 16.3747 62.1973 16.2295 62.4353 16.1049ZM69.8878 16.7691C69.8878 15.7625 70.0431 14.8597 70.3433 14.0503C70.6434 13.2305 71.0678 12.5457 71.6164 11.9646C72.165 11.3938 72.8171 10.9476 73.5727 10.6363C74.3283 10.325 75.1667 10.1694 76.0879 10.1694C76.6779 10.1694 77.1954 10.2212 77.6612 10.325C78.127 10.4392 78.5307 10.5844 78.8929 10.7816C79.2449 10.9684 79.545 11.1967 79.8038 11.4561C80.0522 11.7155 80.2592 11.9957 80.4145 12.2966C80.5801 12.6079 80.694 12.9296 80.7664 13.2617C80.8389 13.5937 80.8699 13.9362 80.8699 14.2682C80.8699 14.9739 80.725 15.5965 80.4352 16.1257C80.1454 16.6549 79.7417 17.1011 79.2035 17.4643C78.6756 17.8171 78.0338 18.0869 77.2886 18.2633C76.5433 18.4501 75.7049 18.5331 74.7837 18.5331C74.5457 18.5331 74.349 18.5746 74.1937 18.6473C74.0385 18.7199 73.9557 18.8548 73.9557 19.0416C73.9557 19.301 74.0281 19.5708 74.1523 19.8302C74.2869 20.0897 74.4628 20.318 74.6906 20.5255C74.9286 20.7227 75.1977 20.8887 75.5186 21.0132C75.8395 21.1377 76.1914 21.2 76.5744 21.2C76.8642 21.2 77.1437 21.1792 77.3921 21.1377C77.6509 21.0858 77.8993 21.0236 78.1373 20.9302C78.3754 20.8472 78.6031 20.733 78.8308 20.6085C79.0585 20.4736 79.2863 20.3283 79.514 20.1519C79.6485 20.0378 79.8349 19.9755 80.0522 19.9755C80.1764 19.9755 80.3006 19.9963 80.4145 20.0482C80.518 20.0897 80.6112 20.1519 80.694 20.2349C80.7664 20.3076 80.8389 20.401 80.8803 20.5047C80.9217 20.6189 80.9424 20.7227 80.9424 20.8472C80.9424 21.0443 80.8803 21.2311 80.7664 21.4179C80.6526 21.6047 80.5076 21.7811 80.3213 21.9471C80.1143 22.1339 79.8659 22.3207 79.5864 22.4867C79.2966 22.6528 78.9861 22.798 78.6238 22.9329C78.2719 23.0575 77.8786 23.1612 77.4438 23.2339C77.0195 23.3065 76.5433 23.348 76.0361 23.348C75.0321 23.348 74.1523 23.1924 73.3864 22.8707C72.6204 22.5594 71.9787 22.1028 71.4611 21.5321C70.9436 20.9509 70.5503 20.2557 70.2915 19.4463C70.0224 18.6369 69.8878 17.7445 69.8878 16.7691ZM95.4437 19.9859C95.4437 20.5151 95.3505 21.0132 95.1746 21.4594C94.9986 21.916 94.7502 22.3207 94.4397 22.6839C94.1292 23.0471 93.7565 23.3584 93.3321 23.6282C92.9078 23.898 92.442 24.1263 91.9348 24.3027C91.438 24.4791 90.9204 24.614 90.3718 24.7074C89.8233 24.8008 89.2643 24.8423 88.7157 24.8423C88.1879 24.8423 87.66 24.8008 87.1528 24.7178C86.6353 24.6451 86.1488 24.5206 85.683 24.3546C85.2172 24.1885 84.7825 23.9914 84.3892 23.7423C83.9958 23.5037 83.6543 23.2131 83.3644 22.881C83.0746 22.5594 82.8469 22.1858 82.6813 21.7707C82.526 21.3556 82.4432 20.8991 82.4432 20.3906C82.4432 19.9859 82.5053 19.6331 82.6295 19.3218C82.7537 19.0105 82.9297 18.751 83.1367 18.5435C83.3334 18.3463 83.5714 18.1907 83.8406 18.0869C84.0993 17.9832 84.3685 17.9313 84.6272 17.9313C84.8653 17.9313 85.093 17.9728 85.3207 18.0558C85.5484 18.1388 85.7554 18.253 85.9211 18.3982C86.097 18.5539 86.2419 18.7303 86.3454 18.9482C86.4489 19.1557 86.511 19.3944 86.511 19.6538C86.511 19.8302 86.4903 19.9859 86.4593 20.1104C86.4282 20.2453 86.3868 20.3698 86.3558 20.484C86.3144 20.5981 86.2833 20.7123 86.2523 20.8264C86.2212 20.9406 86.2005 21.0755 86.2005 21.2311C86.2005 21.5009 86.2523 21.75 86.3558 21.9783C86.4489 22.2169 86.6042 22.4141 86.8216 22.5801C87.0389 22.7565 87.3081 22.881 87.6496 22.9744C87.9808 23.0782 88.3949 23.1197 88.871 23.1197C89.3057 23.1197 89.7094 23.0575 90.082 22.9433C90.4547 22.8188 90.7755 22.6424 91.0446 22.4245C91.3138 22.1962 91.5311 21.9264 91.6864 21.6047C91.8417 21.2934 91.9141 20.9406 91.9141 20.5566C91.9141 20.2142 91.852 19.8925 91.7278 19.5708C91.6036 19.2595 91.3759 18.9482 91.055 18.6265C90.7238 18.2945 90.2787 17.952 89.7094 17.5992C89.1401 17.236 88.4052 16.8417 87.5254 16.4059C86.0556 15.6899 84.9481 14.8908 84.2028 13.9984C83.4472 13.106 83.0746 12.0891 83.0746 10.958C83.0746 10.4288 83.1574 9.95144 83.3127 9.52599C83.4679 9.09016 83.6853 8.70621 83.9648 8.36378C84.2442 8.01096 84.5755 7.72041 84.9481 7.46099C85.3207 7.20156 85.7347 6.99403 86.1798 6.81762C86.6146 6.65159 87.0803 6.52707 87.5668 6.44405C88.0533 6.36104 88.5398 6.30915 89.0366 6.30915C89.492 6.30915 89.9475 6.35066 90.3926 6.4233C90.8376 6.49593 91.262 6.5997 91.6657 6.74498C92.0694 6.89026 92.442 7.06666 92.7836 7.28458C93.1355 7.49212 93.4253 7.75154 93.6841 8.03172C93.9325 8.32227 94.1292 8.63358 94.2637 8.99677C94.4086 9.34958 94.4811 9.7439 94.4811 10.159C94.4811 10.5325 94.4293 10.8542 94.3155 11.1344C94.2016 11.425 94.0463 11.6533 93.8497 11.8504C93.653 12.0372 93.4253 12.1825 93.1562 12.2862C92.8974 12.3796 92.618 12.4315 92.3178 12.4315C92.059 12.4315 91.8106 12.4004 91.5829 12.3277C91.3552 12.2551 91.1585 12.1513 90.9825 12.0164C90.8169 11.8815 90.6824 11.7155 90.5892 11.5184C90.4857 11.3316 90.434 11.1137 90.434 10.8646C90.434 10.709 90.4547 10.5637 90.4857 10.4392C90.5168 10.3146 90.5478 10.2005 90.5996 10.0863C90.6306 9.97219 90.672 9.86843 90.7134 9.76466C90.7445 9.66089 90.7652 9.55712 90.7652 9.45335C90.7652 9.2043 90.7031 8.98639 90.5892 8.80998C90.4754 8.63358 90.3201 8.4883 90.1338 8.37415C89.9371 8.26001 89.7198 8.17699 89.4713 8.11473C89.2333 8.06285 88.9745 8.03172 88.7157 8.03172C88.4259 8.03172 88.1154 8.0836 87.8152 8.17699C87.5151 8.26001 87.2459 8.40528 87.0079 8.59207C86.7698 8.77885 86.5732 9.01752 86.4282 9.2977C86.273 9.57787 86.2005 9.90993 86.2005 10.2939C86.2005 10.6363 86.2626 10.9476 86.3868 11.2486C86.5007 11.5495 86.7077 11.8504 87.0182 12.1513C87.3184 12.4419 87.7221 12.7636 88.2396 13.0853C88.7675 13.4069 89.4299 13.7701 90.2269 14.1645C90.9929 14.538 91.6967 14.9323 92.3385 15.337C92.9802 15.7417 93.5288 16.1776 93.9946 16.6445C94.45 17.1115 94.8123 17.62 95.0607 18.1596C95.3195 18.7095 95.4437 19.3114 95.4437 19.9859ZM103.517 10.1694C104.107 10.1694 104.656 10.242 105.163 10.408C105.67 10.5637 106.115 10.8127 106.478 11.1448C106.85 11.4872 107.14 11.9023 107.347 12.4108C107.554 12.9296 107.658 13.5315 107.658 14.2371V20.5151C107.658 20.7434 107.678 20.9406 107.709 21.0962C107.74 21.2519 107.782 21.3764 107.823 21.5009C107.865 21.6151 107.906 21.7292 107.937 21.8434C107.968 21.9575 107.989 22.0924 107.989 22.2481C107.989 22.4037 107.958 22.549 107.896 22.6839C107.833 22.8188 107.751 22.9329 107.637 23.0263C107.533 23.1197 107.399 23.2027 107.243 23.2546C107.088 23.3169 106.923 23.348 106.736 23.348C106.374 23.348 106.053 23.2754 105.784 23.1197C105.505 22.9744 105.277 22.7565 105.091 22.4867C104.915 22.2066 104.77 21.8745 104.676 21.4905C104.583 21.1066 104.532 20.6811 104.532 20.2038V13.6871C104.532 13.4588 104.501 13.2305 104.449 13.0126C104.387 12.7947 104.283 12.6079 104.159 12.4419C104.035 12.2655 103.869 12.141 103.662 12.0372C103.465 11.9438 103.227 11.8919 102.958 11.8919C102.544 11.8919 102.203 11.9853 101.923 12.1825C101.644 12.3796 101.416 12.6391 101.25 12.9504C101.074 13.2617 100.961 13.6145 100.878 13.9984C100.805 14.3824 100.774 14.7663 100.774 15.1503V22.2481C100.774 22.3622 100.754 22.466 100.712 22.5594C100.671 22.6528 100.609 22.7358 100.547 22.8084C100.474 22.881 100.391 22.9329 100.288 22.9744C100.195 23.0159 100.091 23.0367 99.998 23.0367H98.4247C98.3212 23.0367 98.2177 23.0159 98.1245 22.9744C98.0314 22.9329 97.9486 22.881 97.8761 22.8084C97.8036 22.7358 97.7519 22.6528 97.7105 22.5594C97.6691 22.466 97.6484 22.3622 97.6484 22.2481V7.9487C97.6484 7.72041 97.6277 7.52325 97.5863 7.36759C97.5552 7.22232 97.5138 7.08742 97.4724 6.9629C97.431 6.84875 97.4 6.7346 97.3689 6.62046C97.3275 6.51669 97.3172 6.38179 97.3172 6.22614C97.3172 6.07048 97.3482 5.92521 97.4103 5.79031C97.4621 5.65541 97.5552 5.53088 97.6587 5.43749C97.7726 5.3441 97.9072 5.26108 98.0624 5.2092C98.2177 5.14694 98.3833 5.12618 98.5799 5.12618C98.9319 5.12618 99.2527 5.19882 99.5219 5.3441C99.8013 5.49975 100.029 5.70729 100.215 5.98747C100.402 6.26764 100.536 6.58933 100.629 6.97327C100.723 7.36759 100.774 7.79305 100.774 8.27038V10.0345C100.774 10.159 100.795 10.2731 100.836 10.3769C100.867 10.4703 100.971 10.5222 101.126 10.5222C101.24 10.5222 101.364 10.5014 101.488 10.4703C101.613 10.4288 101.768 10.3873 101.944 10.3458C102.12 10.3043 102.337 10.2627 102.596 10.2212C102.844 10.1901 103.155 10.1694 103.517 10.1694ZM115.824 10.1694C116.011 10.1694 116.228 10.1797 116.445 10.1901C116.673 10.2109 116.901 10.242 117.118 10.2939C117.335 10.3354 117.542 10.3873 117.749 10.4703C117.956 10.5325 118.132 10.6259 118.288 10.7297C118.443 10.8335 118.567 10.958 118.66 11.1033C118.753 11.2486 118.795 11.4146 118.795 11.6014C118.795 11.8193 118.733 11.9957 118.598 12.141C118.464 12.2862 118.267 12.3589 118.008 12.3589C117.77 12.3589 117.584 12.3381 117.439 12.2862C117.294 12.2344 117.159 12.1825 117.035 12.1202C116.901 12.0683 116.756 12.0164 116.6 11.9646C116.435 11.9127 116.228 11.8919 115.979 11.8919C115.483 11.8919 115.069 12.0164 114.727 12.2759C114.396 12.5353 114.116 12.8881 113.909 13.3343C113.702 13.7701 113.547 14.289 113.454 14.8701C113.371 15.4616 113.319 16.0842 113.319 16.7483C113.319 17.4436 113.371 18.0869 113.464 18.6888C113.568 19.2803 113.713 19.7887 113.92 20.2246C114.116 20.6604 114.375 21.0028 114.696 21.2519C115.006 21.5009 115.379 21.6254 115.824 21.6254C116.186 21.6254 116.507 21.5528 116.787 21.4075C117.056 21.2623 117.284 21.0651 117.47 20.8264C117.656 20.5878 117.801 20.3076 117.884 20.0066C117.977 19.6953 118.029 19.3737 118.029 19.0416C118.029 18.6784 117.998 18.3671 117.946 18.0869C117.884 17.8067 117.812 17.5473 117.739 17.319C117.656 17.0907 117.563 16.8728 117.47 16.6653C117.377 16.4681 117.284 16.2606 117.211 16.0634C117.128 15.8663 117.056 15.6484 117.004 15.4408C116.942 15.2229 116.921 14.9739 116.921 14.7144C116.921 14.2267 117.046 13.8428 117.284 13.5626C117.522 13.2824 117.884 13.1371 118.381 13.1371C118.805 13.1371 119.188 13.2513 119.53 13.4796C119.871 13.6975 120.171 14.0088 120.41 14.3824C120.648 14.7663 120.834 15.2125 120.958 15.721C121.093 16.2295 121.155 16.7691 121.155 17.3294C121.155 17.9935 121.082 18.6058 120.937 19.1557C120.793 19.7057 120.596 20.2142 120.347 20.6604C120.089 21.1066 119.799 21.5009 119.447 21.833C119.105 22.165 118.733 22.4452 118.319 22.6735C117.915 22.9018 117.48 23.0678 117.035 23.1716C116.58 23.2857 116.124 23.348 115.669 23.348C114.841 23.348 114.075 23.2027 113.371 22.9329C112.667 22.6631 112.057 22.2481 111.529 21.7085C111.011 21.1585 110.597 20.4736 110.307 19.6435C110.017 18.8133 109.862 17.8483 109.862 16.7483C109.862 16.1776 109.914 15.6172 110.017 15.0672C110.131 14.5173 110.287 13.9984 110.504 13.5211C110.721 13.0334 110.99 12.5872 111.311 12.1721C111.643 11.7674 112.025 11.4042 112.46 11.1137C112.905 10.8127 113.402 10.5844 113.961 10.4184C114.52 10.2524 115.141 10.1694 115.824 10.1694ZM123.349 13.3032C123.349 13.0645 123.339 12.8777 123.297 12.7221C123.266 12.5768 123.225 12.4419 123.184 12.3277C123.142 12.2032 123.111 12.0891 123.08 11.9853C123.039 11.8712 123.028 11.7363 123.028 11.5806C123.028 11.425 123.059 11.2797 123.111 11.1448C123.173 10.9995 123.256 10.8854 123.37 10.792C123.484 10.6882 123.618 10.6156 123.774 10.5533C123.929 10.5014 124.094 10.4703 124.291 10.4703C124.477 10.4703 124.653 10.491 124.798 10.5325C124.943 10.5844 125.078 10.6259 125.192 10.6778C125.305 10.7297 125.419 10.7712 125.523 10.8127C125.626 10.8542 125.73 10.875 125.844 10.875C125.968 10.875 126.092 10.8439 126.227 10.7608C126.351 10.6986 126.516 10.6156 126.713 10.5222C126.91 10.4288 127.148 10.3458 127.438 10.2731C127.727 10.2005 128.079 10.1694 128.514 10.1694C129.197 10.1694 129.798 10.2524 130.336 10.4184C130.864 10.5844 131.34 10.8231 131.744 11.1137C132.158 11.4146 132.499 11.7674 132.789 12.1825C133.068 12.5975 133.307 13.0438 133.482 13.5315C133.669 14.0192 133.793 14.538 133.876 15.0776C133.959 15.6276 134 16.188 134 16.7587C134 17.2983 133.969 17.8379 133.886 18.3775C133.814 18.9171 133.689 19.4255 133.524 19.9133C133.358 20.401 133.141 20.8576 132.861 21.2726C132.592 21.6877 132.261 22.0613 131.857 22.3622C131.464 22.6631 130.998 22.9122 130.47 23.0782C129.943 23.2546 129.342 23.348 128.659 23.348C128.514 23.348 128.369 23.3273 128.224 23.2961C128.079 23.265 127.955 23.2131 127.831 23.1508C127.707 23.0782 127.614 22.9952 127.531 22.881C127.458 22.7669 127.417 22.632 127.417 22.466C127.417 22.3726 127.438 22.2688 127.469 22.1754C127.5 22.0717 127.552 21.9886 127.603 21.916C127.665 21.8434 127.738 21.7811 127.821 21.7396C127.914 21.6981 128.017 21.667 128.131 21.667C128.183 21.667 128.224 21.6773 128.255 21.6773C128.286 21.6877 128.328 21.6877 128.359 21.6877C128.597 21.6877 128.825 21.6151 129.032 21.4905C129.228 21.3556 129.415 21.1792 129.58 20.9509C129.736 20.733 129.88 20.4529 130.005 20.1416C130.118 19.8302 130.222 19.4878 130.305 19.1246C130.388 18.751 130.439 18.3775 130.491 17.9728C130.533 17.5681 130.553 17.1634 130.553 16.7483C130.553 16.1361 130.512 15.5342 130.429 14.9531C130.346 14.372 130.212 13.8532 130.036 13.3966C129.849 12.94 129.611 12.5768 129.311 12.2966C129.011 12.0268 128.638 11.8919 128.204 11.8919C127.862 11.8919 127.583 11.9646 127.365 12.1202C127.148 12.2862 126.972 12.4938 126.837 12.7532C126.703 13.023 126.61 13.3239 126.558 13.6767C126.506 14.0192 126.485 14.3824 126.485 14.7663V25.2574C126.485 25.7243 126.434 26.1498 126.34 26.5441C126.247 26.928 126.102 27.2497 125.916 27.5299C125.73 27.7997 125.502 28.0176 125.223 28.1629C124.953 28.3185 124.633 28.3912 124.27 28.3912C124.084 28.3912 123.918 28.36 123.763 28.3082C123.608 28.2563 123.484 28.1733 123.37 28.0799C123.256 27.9761 123.173 27.862 123.111 27.7271C123.059 27.5922 123.028 27.4469 123.028 27.2809C123.028 27.1252 123.039 27.0007 123.08 26.8865C123.111 26.7828 123.142 26.6686 123.184 26.5545C123.225 26.4403 123.266 26.3158 123.297 26.1705C123.339 26.0356 123.349 25.8488 123.349 25.6309V13.3032ZM104.252 6.91101C104.252 6.83837 104.262 6.76573 104.294 6.6931C104.325 6.63083 104.366 6.56857 104.418 6.51669C104.469 6.47518 104.521 6.43367 104.594 6.40254C104.656 6.37141 104.728 6.35066 104.811 6.35066C104.884 6.35066 104.956 6.37141 105.018 6.40254C105.091 6.43367 105.142 6.47518 105.194 6.51669C105.246 6.56857 105.287 6.63083 105.318 6.6931C105.349 6.76573 105.36 6.83837 105.36 6.91101C105.36 6.98365 105.349 7.05629 105.318 7.12893C105.287 7.19119 105.246 7.25345 105.194 7.30533C105.142 7.35722 105.091 7.39872 105.018 7.41948C104.956 7.45061 104.884 7.47136 104.811 7.47136C104.728 7.47136 104.656 7.45061 104.594 7.41948C104.521 7.39872 104.469 7.35722 104.418 7.30533C104.366 7.25345 104.325 7.19119 104.294 7.12893C104.262 7.05629 104.252 6.98365 104.252 6.91101ZM108.134 6.74498C108.216 6.74498 108.299 6.7346 108.382 6.71385C108.465 6.70347 108.558 6.67234 108.641 6.63083C108.734 6.58933 108.817 6.51669 108.9 6.43367C108.982 6.35066 109.055 6.24689 109.127 6.11199C109.138 6.08086 109.158 6.06011 109.179 6.03935C109.2 6.0186 109.22 5.99784 109.252 5.98747C109.272 5.97709 109.293 5.97709 109.314 5.96671C109.334 5.96671 109.355 5.96671 109.365 5.96671C109.407 5.96671 109.438 5.96671 109.479 5.98747C109.51 5.99784 109.541 6.0186 109.562 6.03935C109.593 6.06011 109.614 6.09124 109.624 6.13274C109.634 6.16387 109.645 6.195 109.645 6.23651C109.645 6.27802 109.645 6.30915 109.634 6.35066C109.624 6.39217 109.614 6.43367 109.593 6.48556C109.531 6.64121 109.448 6.77611 109.334 6.90063C109.231 7.02516 109.107 7.12893 108.962 7.21194C108.827 7.29496 108.672 7.35722 108.506 7.39872C108.341 7.45061 108.165 7.47136 107.978 7.47136C107.647 7.47136 107.347 7.4091 107.099 7.28458C106.85 7.17043 106.643 7.0044 106.478 6.79686C106.312 6.58933 106.188 6.34028 106.105 6.06011C106.022 5.76955 105.981 5.45825 105.981 5.12618C105.981 4.75262 106.032 4.42056 106.136 4.13C106.229 3.83945 106.374 3.60078 106.56 3.40362C106.736 3.20646 106.954 3.05081 107.202 2.94704C107.461 2.84327 107.73 2.79138 108.03 2.79138C108.227 2.79138 108.413 2.81214 108.61 2.86402C108.806 2.90553 108.972 2.97817 109.127 3.08194C109.283 3.17533 109.407 3.31023 109.5 3.46588C109.603 3.62154 109.645 3.8187 109.645 4.04699C109.645 4.15076 109.624 4.23377 109.593 4.31679C109.552 4.3998 109.5 4.46206 109.438 4.52433C109.376 4.57621 109.314 4.61772 109.231 4.64885C109.158 4.67998 109.076 4.69036 109.003 4.69036C108.931 4.69036 108.858 4.67998 108.786 4.65922C108.724 4.63847 108.662 4.59696 108.599 4.55546C108.548 4.51395 108.506 4.45169 108.475 4.37905C108.434 4.31679 108.423 4.23377 108.423 4.13C108.423 4.09887 108.423 4.06774 108.434 4.03661C108.434 4.00548 108.444 3.97435 108.444 3.94322C108.455 3.92247 108.455 3.89133 108.465 3.8602C108.465 3.82907 108.475 3.79794 108.475 3.76681C108.475 3.64229 108.434 3.5489 108.372 3.48664C108.299 3.43475 108.206 3.40362 108.092 3.40362C107.958 3.40362 107.833 3.44513 107.72 3.51777C107.606 3.5904 107.513 3.70455 107.44 3.84983C107.368 3.9951 107.306 4.17151 107.264 4.38943C107.223 4.60734 107.202 4.84601 107.202 5.12618C107.202 5.33372 107.223 5.54126 107.264 5.72804C107.295 5.92521 107.357 6.10161 107.43 6.24689C107.513 6.39217 107.606 6.51669 107.72 6.61008C107.844 6.6931 107.978 6.74498 108.134 6.74498ZM112.315 2.79138C112.388 2.79138 112.46 2.79138 112.543 2.80176C112.615 2.81214 112.698 2.82252 112.771 2.83289C112.854 2.85365 112.926 2.8744 112.998 2.89515C113.071 2.92628 113.133 2.95741 113.195 2.98855C113.247 3.03005 113.288 3.07156 113.319 3.12344C113.361 3.17533 113.371 3.23759 113.371 3.29985C113.371 3.37249 113.35 3.44513 113.299 3.49701C113.257 3.5489 113.185 3.56965 113.092 3.56965C113.009 3.56965 112.947 3.55927 112.895 3.5489C112.843 3.52814 112.791 3.50739 112.75 3.48664C112.698 3.46588 112.647 3.44513 112.595 3.43475C112.533 3.414 112.46 3.40362 112.367 3.40362C112.201 3.40362 112.046 3.44513 111.932 3.53852C111.808 3.63191 111.715 3.75644 111.643 3.91209C111.57 4.06774 111.508 4.25453 111.477 4.46206C111.446 4.6696 111.436 4.89789 111.436 5.12618C111.436 5.37523 111.446 5.60352 111.477 5.81106C111.518 6.02898 111.57 6.20538 111.643 6.36104C111.715 6.51669 111.808 6.64121 111.912 6.72423C112.025 6.81762 112.16 6.85913 112.315 6.85913C112.45 6.85913 112.564 6.828 112.657 6.77611C112.75 6.7346 112.833 6.66197 112.905 6.57895C112.967 6.49593 113.019 6.39217 113.05 6.27802C113.081 6.17425 113.102 6.06011 113.102 5.93558C113.102 5.81106 113.092 5.69691 113.071 5.60352C113.05 5.49975 113.03 5.41674 112.998 5.33372C112.967 5.25071 112.936 5.16769 112.905 5.10543C112.864 5.03279 112.833 4.96016 112.812 4.88752C112.781 4.81488 112.75 4.74224 112.74 4.65922C112.719 4.58659 112.709 4.50357 112.709 4.3998C112.709 4.23377 112.75 4.09887 112.833 3.9951C112.916 3.90171 113.05 3.84983 113.226 3.84983C113.371 3.84983 113.516 3.89133 113.63 3.96397C113.754 4.04699 113.858 4.15076 113.94 4.28566C114.034 4.42056 114.096 4.58659 114.137 4.76299C114.189 4.9394 114.209 5.13656 114.209 5.33372C114.209 5.57239 114.178 5.79031 114.127 5.97709C114.075 6.17425 114.013 6.36104 113.92 6.51669C113.837 6.67234 113.723 6.81762 113.599 6.93176C113.485 7.05629 113.35 7.14968 113.205 7.23269C113.061 7.30533 112.905 7.36759 112.75 7.4091C112.584 7.45061 112.429 7.47136 112.264 7.47136C111.963 7.47136 111.694 7.41948 111.446 7.32609C111.197 7.22232 110.98 7.07704 110.794 6.89026C110.607 6.6931 110.463 6.44405 110.359 6.1535C110.256 5.86294 110.204 5.52051 110.204 5.12618C110.204 4.92902 110.224 4.73186 110.256 4.5347C110.297 4.33754 110.359 4.15076 110.431 3.98473C110.504 3.80832 110.607 3.65267 110.721 3.50739C110.835 3.36211 110.97 3.23759 111.125 3.12344C111.28 3.01968 111.456 2.93666 111.653 2.88478C111.86 2.82252 112.077 2.79138 112.315 2.79138ZM117.211 7.07704V4.13C117.211 3.90171 117.17 3.7253 117.097 3.60078C117.025 3.46588 116.911 3.40362 116.766 3.40362C116.621 3.40362 116.518 3.44513 116.425 3.51777C116.342 3.5904 116.269 3.6838 116.228 3.79794C116.176 3.91209 116.145 4.03661 116.124 4.18189C116.104 4.32716 116.093 4.46206 116.093 4.59696V7.07704C116.093 7.11855 116.093 7.16006 116.073 7.19119C116.062 7.22232 116.042 7.25345 116.021 7.2742C115.99 7.30533 115.959 7.32609 115.928 7.33646C115.897 7.35722 115.855 7.35722 115.824 7.35722H115.265C115.224 7.35722 115.193 7.35722 115.162 7.33646C115.12 7.32609 115.1 7.30533 115.069 7.2742C115.048 7.25345 115.027 7.22232 115.006 7.19119C114.996 7.16006 114.986 7.11855 114.986 7.07704V3.90171C114.986 3.8187 114.986 3.74606 114.975 3.69417C114.955 3.64229 114.944 3.5904 114.934 3.55927C114.913 3.51777 114.903 3.47626 114.893 3.43475C114.882 3.39324 114.882 3.35174 114.882 3.28947C114.882 3.23759 114.893 3.18571 114.913 3.13382C114.934 3.09231 114.965 3.05081 115.006 3.0093C115.038 2.97817 115.089 2.94704 115.141 2.93666C115.193 2.91591 115.255 2.90553 115.327 2.90553C115.379 2.90553 115.431 2.90553 115.472 2.91591C115.514 2.93666 115.555 2.94704 115.596 2.95741C115.638 2.96779 115.679 2.97817 115.721 2.99892C115.772 3.0093 115.824 3.0093 115.886 3.0093C115.938 3.0093 116 2.99892 116.073 2.97817C116.135 2.95741 116.218 2.92628 116.3 2.90553C116.383 2.8744 116.476 2.85365 116.569 2.82252C116.663 2.80176 116.766 2.79138 116.88 2.79138C116.994 2.79138 117.097 2.80176 117.18 2.81214C117.273 2.82252 117.346 2.83289 117.408 2.85365C117.47 2.86402 117.522 2.88478 117.573 2.90553C117.625 2.91591 117.667 2.93666 117.708 2.95741C117.749 2.96779 117.801 2.97817 117.843 2.99892C117.884 3.0093 117.936 3.0093 117.987 3.0093C118.07 3.0093 118.143 2.99892 118.215 2.97817C118.288 2.95741 118.36 2.92628 118.443 2.90553C118.515 2.8744 118.609 2.85365 118.712 2.82252C118.816 2.80176 118.95 2.79138 119.095 2.79138C119.312 2.79138 119.509 2.82252 119.685 2.8744C119.861 2.93666 120.006 3.01968 120.14 3.1442C120.265 3.25834 120.368 3.414 120.441 3.5904C120.503 3.76681 120.544 3.98473 120.544 4.23377V6.4648C120.544 6.54782 120.544 6.61008 120.565 6.67234C120.575 6.72423 120.586 6.77611 120.596 6.81762C120.617 6.85913 120.627 6.89026 120.637 6.93176C120.658 6.97327 120.658 7.02516 120.658 7.07704C120.658 7.12893 120.648 7.18081 120.627 7.23269C120.606 7.28458 120.575 7.32609 120.534 7.35722C120.492 7.38835 120.451 7.41948 120.399 7.44023C120.337 7.46099 120.275 7.47136 120.213 7.47136C120.089 7.47136 119.975 7.44023 119.871 7.38835C119.778 7.33646 119.695 7.26382 119.633 7.16006C119.571 7.06666 119.519 6.95252 119.488 6.80724C119.447 6.67234 119.437 6.51669 119.437 6.35066V4.13C119.437 3.90171 119.395 3.7253 119.323 3.60078C119.25 3.46588 119.136 3.40362 118.981 3.40362C118.847 3.40362 118.733 3.44513 118.65 3.51777C118.557 3.5904 118.495 3.6838 118.443 3.79794C118.391 3.91209 118.36 4.03661 118.339 4.18189C118.329 4.32716 118.319 4.46206 118.319 4.59696V7.07704C118.319 7.11855 118.308 7.16006 118.298 7.19119C118.277 7.22232 118.257 7.25345 118.236 7.2742C118.205 7.30533 118.184 7.32609 118.143 7.33646C118.112 7.35722 118.081 7.35722 118.039 7.35722H117.48C117.449 7.35722 117.408 7.35722 117.377 7.33646C117.346 7.32609 117.315 7.30533 117.294 7.2742C117.263 7.25345 117.242 7.22232 117.232 7.19119C117.211 7.16006 117.211 7.11855 117.211 7.07704ZM121.269 6.91101C121.269 6.83837 121.279 6.76573 121.31 6.6931C121.341 6.63083 121.383 6.56857 121.434 6.51669C121.476 6.47518 121.538 6.43367 121.61 6.40254C121.672 6.37141 121.745 6.35066 121.817 6.35066C121.9 6.35066 121.973 6.37141 122.035 6.40254C122.107 6.43367 122.159 6.47518 122.211 6.51669C122.262 6.56857 122.304 6.63083 122.335 6.6931C122.355 6.76573 122.376 6.83837 122.376 6.91101C122.376 6.98365 122.355 7.05629 122.335 7.12893C122.304 7.19119 122.262 7.25345 122.211 7.30533C122.159 7.35722 122.107 7.39872 122.035 7.41948C121.973 7.45061 121.9 7.47136 121.817 7.47136C121.745 7.47136 121.672 7.45061 121.61 7.41948C121.538 7.39872 121.476 7.35722 121.434 7.30533C121.383 7.25345 121.341 7.19119 121.31 7.12893C121.279 7.05629 121.269 6.98365 121.269 6.91101ZM126.661 3.18571V6.36104C126.661 6.44405 126.672 6.51669 126.682 6.56857C126.692 6.62046 126.703 6.66197 126.713 6.70347C126.734 6.74498 126.744 6.78649 126.755 6.828C126.765 6.8695 126.775 6.91101 126.775 6.97327C126.775 7.02516 126.765 7.07704 126.744 7.11855C126.723 7.17043 126.692 7.21194 126.651 7.24307C126.61 7.28458 126.558 7.30533 126.506 7.32609C126.454 7.34684 126.392 7.35722 126.33 7.35722C126.268 7.35722 126.216 7.35722 126.175 7.34684C126.133 7.33646 126.092 7.31571 126.051 7.30533C126.009 7.29496 125.968 7.28458 125.926 7.26382C125.885 7.25345 125.823 7.25345 125.761 7.25345C125.709 7.25345 125.647 7.26382 125.575 7.28458C125.502 7.30533 125.419 7.33646 125.326 7.35722C125.233 7.38835 125.129 7.4091 125.005 7.42986C124.881 7.46099 124.746 7.47136 124.581 7.47136C124.374 7.47136 124.177 7.44023 123.991 7.37797C123.815 7.32609 123.66 7.24307 123.525 7.11855C123.401 7.0044 123.297 6.84875 123.225 6.67234C123.152 6.48556 123.111 6.27802 123.111 6.0186V3.91209C123.111 3.8187 123.101 3.75644 123.09 3.70455C123.08 3.65267 123.059 3.60078 123.049 3.55927C123.039 3.51777 123.018 3.47626 123.008 3.43475C122.997 3.39324 122.997 3.35174 122.997 3.28947C122.997 3.23759 123.008 3.18571 123.028 3.13382C123.049 3.09231 123.08 3.05081 123.121 3.01968C123.152 2.97817 123.204 2.95741 123.256 2.93666C123.318 2.91591 123.37 2.90553 123.442 2.90553C123.567 2.90553 123.68 2.92628 123.774 2.97817C123.877 3.04043 123.96 3.11307 124.022 3.20646C124.084 3.31023 124.136 3.42437 124.167 3.55927C124.198 3.69417 124.219 3.84983 124.219 4.01586V6.21576C124.219 6.29877 124.229 6.38179 124.25 6.45443C124.27 6.53744 124.312 6.5997 124.353 6.66197C124.395 6.72423 124.457 6.76573 124.529 6.80724C124.591 6.83837 124.674 6.85913 124.778 6.85913C124.933 6.85913 125.057 6.81762 125.15 6.74498C125.254 6.67234 125.326 6.57895 125.388 6.4648C125.45 6.35066 125.492 6.21576 125.512 6.08086C125.543 5.93558 125.554 5.80068 125.554 5.65541V3.18571C125.554 3.1442 125.564 3.10269 125.575 3.07156C125.595 3.04043 125.606 3.0093 125.637 2.98855C125.657 2.95741 125.688 2.93666 125.719 2.92628C125.761 2.90553 125.792 2.90553 125.833 2.90553H126.392C126.423 2.90553 126.465 2.90553 126.496 2.92628C126.527 2.93666 126.558 2.95741 126.579 2.98855C126.61 3.0093 126.62 3.04043 126.641 3.07156C126.661 3.10269 126.661 3.1442 126.661 3.18571ZM129.321 2.79138C129.622 2.79138 129.891 2.83289 130.108 2.92628C130.336 3.0093 130.522 3.13382 130.667 3.2791C130.812 3.43475 130.926 3.61116 130.998 3.80832C131.071 4.01586 131.102 4.23377 131.102 4.46206V6.36104C131.102 6.44405 131.112 6.50631 131.123 6.5582C131.133 6.61008 131.143 6.66197 131.164 6.70347C131.174 6.74498 131.195 6.78649 131.205 6.828C131.216 6.85913 131.226 6.91101 131.226 6.9629C131.226 7.02516 131.216 7.07704 131.195 7.11855C131.174 7.17043 131.143 7.21194 131.102 7.24307C131.06 7.28458 131.009 7.30533 130.957 7.32609C130.905 7.34684 130.843 7.35722 130.771 7.35722C130.708 7.35722 130.646 7.35722 130.595 7.33646C130.543 7.32609 130.491 7.30533 130.45 7.28458C130.408 7.2742 130.377 7.25345 130.336 7.24307C130.305 7.22232 130.263 7.21194 130.222 7.21194C130.181 7.21194 130.129 7.23269 130.067 7.25345C130.005 7.28458 129.932 7.30533 129.839 7.34684C129.756 7.37797 129.653 7.39872 129.529 7.42986C129.415 7.45061 129.27 7.47136 129.114 7.47136C128.856 7.47136 128.618 7.44023 128.411 7.38835C128.204 7.33646 128.028 7.25345 127.883 7.14968C127.748 7.04591 127.634 6.92139 127.562 6.76573C127.479 6.61008 127.448 6.43367 127.448 6.24689C127.448 6.11199 127.458 5.98747 127.5 5.86294C127.531 5.73842 127.603 5.6139 127.696 5.49975C127.79 5.38561 127.924 5.27146 128.09 5.15732C128.255 5.05355 128.462 4.9394 128.711 4.83563C128.928 4.75262 129.114 4.6696 129.27 4.59696C129.425 4.52433 129.549 4.45169 129.653 4.37905C129.746 4.30641 129.818 4.23377 129.87 4.16113C129.911 4.07812 129.943 3.9951 129.943 3.90171C129.943 3.73568 129.88 3.62154 129.777 3.52814C129.663 3.44513 129.518 3.40362 129.321 3.40362C129.239 3.40362 129.166 3.414 129.094 3.43475C129.032 3.45551 128.97 3.48664 128.918 3.51777C128.866 3.5489 128.825 3.5904 128.804 3.63191C128.773 3.67342 128.752 3.7253 128.742 3.76681C128.721 3.90171 128.669 4.01586 128.576 4.10925C128.493 4.19226 128.369 4.24415 128.214 4.24415C128.142 4.24415 128.079 4.23377 128.007 4.21302C127.945 4.19226 127.883 4.15076 127.831 4.10925C127.779 4.06774 127.738 4.00548 127.707 3.93284C127.676 3.87058 127.655 3.78757 127.655 3.6838C127.655 3.5489 127.696 3.42437 127.779 3.31023C127.862 3.20646 127.976 3.11307 128.121 3.03005C128.276 2.95741 128.452 2.89515 128.649 2.85365C128.856 2.81214 129.083 2.79138 129.321 2.79138ZM129.715 5.04317C129.549 5.11581 129.404 5.19882 129.27 5.29222C129.146 5.37523 129.042 5.479 128.949 5.58277C128.856 5.68654 128.783 5.79031 128.742 5.90445C128.69 6.0186 128.669 6.14312 128.669 6.25727C128.669 6.35066 128.68 6.4233 128.711 6.50631C128.732 6.57895 128.773 6.64121 128.814 6.6931C128.866 6.74498 128.918 6.78649 128.99 6.81762C129.063 6.84875 129.135 6.85913 129.228 6.85913C129.321 6.85913 129.425 6.83837 129.518 6.80724C129.611 6.77611 129.694 6.72423 129.767 6.66197C129.839 6.58933 129.891 6.50631 129.932 6.40254C129.974 6.29877 129.994 6.16387 129.994 6.0186V5.19882C129.994 5.14694 129.984 5.10543 129.963 5.06392C129.932 5.03279 129.901 5.01204 129.849 5.01204C129.808 5.01204 129.767 5.02242 129.715 5.04317ZM77.4128 14.1022C77.4128 13.822 77.3817 13.5626 77.3093 13.2928C77.2368 13.023 77.123 12.7947 76.9781 12.5768C76.8435 12.3693 76.6572 12.2032 76.4502 12.0787C76.2328 11.9542 75.9844 11.8919 75.6946 11.8919C75.322 11.8919 74.9907 11.9957 74.7009 12.2032C74.4111 12.4211 74.1627 12.7013 73.966 13.0749C73.759 13.4277 73.6141 13.8532 73.5106 14.3305C73.3967 14.8078 73.345 15.3059 73.345 15.8455C73.345 15.9389 73.3553 16.0323 73.376 16.1464C73.3864 16.2502 73.4278 16.354 73.4795 16.4474C73.5416 16.5408 73.6244 16.6238 73.7383 16.6757C73.8418 16.7379 73.9867 16.7691 74.1834 16.7691C74.8148 16.7691 75.3427 16.6964 75.767 16.5511C76.1811 16.4059 76.5123 16.2191 76.7607 15.97C77.0091 15.7314 77.1747 15.4408 77.2679 15.1191C77.3714 14.7974 77.4128 14.455 77.4128 14.1022ZM60.7999 22.2481C60.7999 22.3622 60.7792 22.466 60.7378 22.5594C60.6964 22.6528 60.6447 22.7358 60.5722 22.8084C60.4998 22.881 60.417 22.9329 60.3238 22.9744C60.2203 23.0159 60.1271 23.0367 60.0236 23.0367H58.4503C58.3468 23.0367 58.2433 23.0159 58.1502 22.9744C58.057 22.9329 57.9742 22.881 57.9017 22.8084C57.8396 22.7358 57.7775 22.6528 57.7361 22.5594C57.6947 22.466 57.674 22.3622 57.674 22.2481V7.9487C57.674 7.72041 57.6533 7.52325 57.6223 7.36759C57.5809 7.22232 57.5395 7.08742 57.5084 6.9629C57.467 6.84875 57.4256 6.7346 57.3946 6.62046C57.3635 6.51669 57.3428 6.38179 57.3428 6.22614C57.3428 6.07048 57.3739 5.92521 57.436 5.79031C57.4981 5.65541 57.5809 5.53088 57.6844 5.43749C57.7982 5.3441 57.9328 5.26108 58.0881 5.2092C58.2433 5.14694 58.4193 5.12618 58.6056 5.12618C58.9679 5.12618 59.2784 5.19882 59.5475 5.3441C59.827 5.49975 60.0547 5.70729 60.241 5.98747C60.4273 6.25727 60.5619 6.58933 60.655 6.97327C60.7585 7.35722 60.7999 7.78267 60.7999 8.26001V22.2481ZM50.915 16.4993C50.4492 16.7068 50.0352 16.9455 49.6626 17.2049C49.3107 17.4539 49.0002 17.7341 48.7414 18.0247C48.493 18.3152 48.2963 18.6265 48.1617 18.9482C48.0272 19.2699 47.9651 19.602 47.9651 19.934C47.9651 20.1831 47.9961 20.4113 48.0686 20.6189C48.141 20.8264 48.2446 21.0028 48.3688 21.1585C48.5033 21.3038 48.6689 21.4179 48.8656 21.5009C49.0519 21.5839 49.2796 21.6254 49.5177 21.6254C49.8179 21.6254 50.087 21.5736 50.3561 21.4905C50.6149 21.3972 50.8529 21.2519 51.0496 21.0651C51.2463 20.8679 51.4119 20.6293 51.5257 20.3283C51.6396 20.0378 51.7017 19.6746 51.7017 19.2699V16.9455C51.7017 16.8002 51.6706 16.686 51.5982 16.5719C51.5361 16.4681 51.4222 16.4162 51.2773 16.4162C51.1634 16.4162 51.0392 16.437 50.915 16.4993Z" fill="#15A0B6"/>
</svg>
