<svg width="220" height="31" viewBox="0 0 220 31" fill="none" xmlns="http://www.w3.org/2000/svg">
<path d="M209.791 30.6332C203.978 30.6332 199.852 26.0778 199.852 20.2403C199.852 14.4028 203.978 9.84736 209.791 9.84736C215.605 9.84736 219.731 14.4028 219.731 20.2403C219.731 26.0778 215.605 30.6332 209.791 30.6332ZM13.2878 15.0575L8.22449 30.3604H6.67068L0 10.202H2.54504L7.50116 25.2594L12.4841 10.202H14.0915L19.1012 25.2594L24.0305 10.202H26.6023L19.9049 30.3604H18.3779L13.2878 15.0575ZM30.0314 19.0946H45.0606C44.6051 15.0029 41.7118 11.975 37.5594 11.975C33.407 11.975 30.5137 15.0029 30.0314 19.0946ZM30.0314 21.2768C30.4065 25.4231 33.3266 28.5328 37.5594 28.5328C39.3543 28.5328 41.0689 27.9872 42.5423 26.9234C43.1049 26.5142 43.7747 25.9141 44.1497 25.314L44.2837 25.0958H46.8823L46.5072 25.8323C46.0518 26.7324 45.1945 27.6599 44.4176 28.3146C42.462 29.9785 40.0777 30.715 37.5326 30.715C31.6656 30.715 27.5668 26.1323 27.5668 20.2676C27.5668 14.4028 31.6656 9.7928 37.5326 9.7928C39.7562 9.7928 41.9262 10.502 43.6943 11.8932C44.9534 12.9025 45.9446 14.1846 46.5876 15.6576C47.2841 17.267 47.5788 19.04 47.4984 20.7858L47.4717 21.2496H30.0314V21.2768ZM53.553 20.2403C53.553 24.823 56.4998 28.5055 61.1345 28.5055C65.7691 28.5055 68.7428 24.7957 68.7428 20.2403C68.7428 15.6848 65.7959 11.975 61.1345 11.975C56.4731 11.975 53.553 15.6848 53.553 20.2403ZM53.553 26.6506V30.3604H51.1687V0H53.553V13.8572C53.8476 13.4208 54.1959 13.0116 54.5174 12.657C56.3123 10.7748 58.5627 9.7928 61.1345 9.7928C67.0015 9.7928 71.1003 14.3755 71.1003 20.2403C71.1003 26.1323 66.9747 30.6877 61.1345 30.6877C58.6162 30.6877 56.3927 29.7603 54.5978 27.9327C54.2227 27.5235 53.8744 27.1143 53.553 26.6506ZM88.7816 12.7934C90.2283 10.8294 92.3179 9.84736 94.7022 9.84736C96.4168 9.84736 98.0509 10.3111 99.4172 11.3749C101.882 13.3117 102.686 16.5577 102.686 19.5856V30.3059H98.5331V20.0221C98.5331 17.3215 97.9438 13.8572 94.595 13.8572C91.2463 13.8572 90.6569 17.2943 90.6569 20.0221V30.3059H86.5313V20.0221C86.5313 17.3215 85.9419 13.8572 82.5932 13.8572C79.2444 13.8572 78.6551 17.2943 78.6551 20.0221V30.3059H74.5026V10.1747H78.6551V10.993C79.8606 10.1747 81.2537 9.82008 82.7003 9.82008C85.1382 9.84736 87.3082 10.7748 88.7816 12.7934ZM160.15 26.6233C161.623 26.6233 164.409 26.3233 164.409 24.3047C164.409 24.0319 164.383 23.7319 164.222 23.4864C163.633 22.4498 161.034 22.0679 159.962 21.9042C156.533 21.4405 152.274 20.1312 152.274 15.8212C152.274 14.9756 152.434 14.1573 152.783 13.4208C154.095 10.6111 157.337 9.82008 160.123 9.82008C162.373 9.82008 164.704 10.3929 166.338 12.0842C167.356 13.148 167.651 14.0209 167.919 15.1938H163.686C163.579 15.0302 163.391 14.812 163.311 14.7574C162.481 14.0209 161.221 13.8299 160.15 13.8299C158.864 13.8299 156.426 14.0482 156.426 15.8212C156.426 15.9849 156.453 16.1759 156.533 16.3395C156.989 17.267 159.453 17.7034 160.364 17.8398C164.115 18.4126 168.535 19.531 168.535 24.2774C168.535 25.3958 168.267 26.4597 167.651 27.4144C166.07 29.924 162.856 30.6332 160.123 30.6332C157.739 30.6332 155.247 30.0604 153.452 28.3146C152.756 27.6326 152.059 26.6233 151.818 25.6686L151.684 25.0685H156.024C156.185 25.2594 156.372 25.4504 156.506 25.5595C157.524 26.3778 158.918 26.6233 160.15 26.6233ZM174 10.202V5.07371H178.153V10.202H183.618V14.1846H178.153V21.9315C178.153 22.9954 178.153 24.1137 178.34 25.1503C178.394 25.5049 178.528 26.105 178.822 26.3505C179.064 26.5688 179.546 26.596 179.867 26.596C180.537 26.596 181.207 26.4597 181.876 26.3233L183.645 25.9141V29.8694L182.6 30.1967C181.689 30.4695 180.644 30.6059 179.706 30.6059C178.421 30.6059 177.161 30.3331 176.143 29.4875C175.179 28.6692 174.697 27.5508 174.402 26.3233C174.081 24.8775 174.027 23.4045 174.027 21.9315V14.1846H170.196V10.202H174ZM191.682 10.8566C192.834 10.1201 194.146 9.82008 195.512 9.82008C196.45 9.82008 197.468 9.95647 198.379 10.2292L199.397 10.5566V14.6756L197.549 14.1027C196.906 13.9118 196.182 13.8299 195.512 13.8299C194.628 13.8299 193.771 14.0209 193.128 14.6756C191.869 15.9576 191.735 18.6854 191.735 20.3767V30.2786H187.609V10.1747H191.735V10.8566H191.682ZM121.626 11.9205V10.202H125.752V30.3331H121.626V28.5873C119.965 29.9512 117.983 30.6332 115.813 30.6332C109.999 30.6332 105.874 26.0778 105.874 20.2403C105.874 14.4028 109.999 9.84736 115.813 9.84736C117.983 9.84736 119.965 10.5293 121.626 11.9205ZM121.626 20.2403C121.626 16.6941 119.429 13.8299 115.813 13.8299C112.196 13.8299 109.999 16.6941 109.999 20.213C109.999 23.7319 112.196 26.596 115.813 26.596C119.429 26.596 121.626 23.7591 121.626 20.2403ZM133.414 22.177C134.083 24.8775 136.173 26.6233 138.986 26.6233C140.379 26.6233 141.692 26.2414 142.817 25.3958C142.951 25.314 143.085 25.2049 143.219 25.0685H148.228L147.934 25.6686C147.451 26.6233 146.621 27.5235 145.817 28.2055C143.888 29.8421 141.504 30.6059 138.986 30.6059C133.172 30.6059 129.047 26.0505 129.047 20.213C129.047 14.3755 133.172 9.7928 138.986 9.7928C141.209 9.7928 143.353 10.502 145.121 11.8932C146.38 12.9025 147.371 14.1846 148.014 15.6576C149.005 17.8944 148.978 19.7493 148.871 22.1225H133.414V22.177ZM133.467 18.1671H144.505C143.781 15.5485 141.718 13.8572 138.986 13.8572C136.253 13.8299 134.19 15.5485 133.467 18.1671ZM215.578 20.2403C215.578 16.7214 213.381 13.8572 209.765 13.8572C206.148 13.8572 203.951 16.7214 203.951 20.2403C203.951 23.7591 206.148 26.6233 209.765 26.6233C213.381 26.6233 215.578 23.7591 215.578 20.2403Z" fill="white"/>
</svg>
